<svg width="174" height="20" viewBox="0 0 174 20" fill="none" xmlns="http://www.w3.org/2000/svg">
<path d="M9.51738 0.744C11.272 0.744 12.8494 1.108 14.2494 1.836L13.5774 5L13.2694 5.14C12.7094 4.748 12.0934 4.44 11.4214 4.216C10.7494 3.992 10.0587 3.88 9.34938 3.88C6.38138 3.88 4.89738 5.83067 4.89738 9.732C4.89738 11.8413 5.28004 13.428 6.04538 14.492C6.82938 15.5373 7.96804 16.06 9.46138 16.06C10.152 16.06 10.8614 15.9573 11.5894 15.752C12.336 15.528 13.008 15.2293 13.6054 14.856L13.9414 15.052L13.6334 18.272C12.2147 18.9253 10.7214 19.252 9.15338 19.252C6.46538 19.252 4.41204 18.468 2.99338 16.9C1.59338 15.332 0.893375 13.0827 0.893375 10.152C0.893375 7.16533 1.64004 4.85067 3.13338 3.208C4.64538 1.56533 6.77338 0.744 9.51738 0.744ZM23.8982 0.715998C26.4369 0.715998 28.3876 1.49067 29.7502 3.04C31.1316 4.57067 31.8222 6.75467 31.8222 9.592C31.8222 12.6907 31.0756 15.08 29.5822 16.76C28.0889 18.44 25.9796 19.28 23.2542 19.28C20.7342 19.28 18.7836 18.496 17.4022 16.928C16.0396 15.3413 15.3582 13.1013 15.3582 10.208C15.3582 7.16533 16.0956 4.82267 17.5702 3.18C19.0636 1.53733 21.1729 0.715998 23.8982 0.715998ZM23.5622 3.768C22.0689 3.768 20.9862 4.23467 20.3142 5.168C19.6422 6.10133 19.3062 7.62267 19.3062 9.732C19.3062 12.14 19.6329 13.8573 20.2862 14.884C20.9582 15.9107 22.0596 16.424 23.5902 16.424C25.0836 16.424 26.1662 15.9573 26.8382 15.024C27.5102 14.072 27.8462 12.5227 27.8462 10.376C27.8462 8.00533 27.5102 6.316 26.8382 5.308C26.1849 4.28133 25.0929 3.768 23.5622 3.768ZM49.5097 13.428L49.6497 19H45.5617L38.1977 6.792H37.9737L37.9457 12.784L38.0577 19H34.6137L34.8097 13.68L34.6417 0.967999H38.7017L46.0657 13.176H46.3177L46.2337 1.136L49.7337 0.911999L49.5097 13.428ZM61.0603 0.744C62.815 0.744 64.3923 1.108 65.7923 1.836L65.1203 5L64.8123 5.14C64.2523 4.748 63.6363 4.44 62.9643 4.216C62.2923 3.992 61.6017 3.88 60.8923 3.88C57.9243 3.88 56.4403 5.83067 56.4403 9.732C56.4403 11.8413 56.823 13.428 57.5883 14.492C58.3723 15.5373 59.511 16.06 61.0043 16.06C61.695 16.06 62.4043 15.9573 63.1323 15.752C63.879 15.528 64.551 15.2293 65.1483 14.856L65.4843 15.052L65.1763 18.272C63.7577 18.9253 62.2643 19.252 60.6963 19.252C58.0083 19.252 55.955 18.468 54.5363 16.9C53.1363 15.332 52.4363 13.0827 52.4363 10.152C52.4363 7.16533 53.183 4.85067 54.6763 3.208C56.1883 1.56533 58.3163 0.744 61.0603 0.744ZM79.6412 15.864L79.8652 16.172L79.6132 19H68.3012L68.4972 13.624L68.3012 0.967999H79.7252L79.9492 1.276L79.6692 4.104L75.3572 3.964L72.1092 3.992L72.0252 8.332L75.1332 8.388L78.0732 8.304L78.2972 8.584L78.0452 11.412L74.8532 11.328L71.9692 11.356L71.9412 13.288L72.0252 16.004L75.1892 16.032L79.6412 15.864ZM92.0113 11.832C93.4673 14.1467 94.9139 16.2373 96.3513 18.104L96.2953 18.524C95.0819 18.9533 93.8406 19.2053 92.5713 19.28L92.1793 18.972C90.8353 16.6573 89.7433 14.6413 88.9033 12.924H86.1873V13.288L86.3553 19H82.5473L82.7433 13.624L82.5473 0.967999L89.4633 0.939999C91.3486 0.939999 92.8046 1.40667 93.8313 2.34C94.8579 3.25467 95.3713 4.57067 95.3713 6.288C95.3713 7.44533 95.0726 8.50933 94.4753 9.48C93.8966 10.432 93.0753 11.216 92.0113 11.832ZM86.2433 9.984L89.0153 10.096C90.6019 9.55467 91.3953 8.40667 91.3953 6.652C91.3953 5.7 91.1339 4.99067 90.6113 4.524C90.1073 4.03867 89.3233 3.77733 88.2593 3.74L86.3553 3.852L86.2433 9.984ZM109.86 1.276L109.636 4.104L106.248 3.936H105.128L104.988 13.288L105.156 19H101.348L101.544 13.624L101.404 3.936H100.284L96.84 4.104L96.588 3.796L96.84 0.967999H109.636L109.86 1.276ZM123.896 0.744C125.651 0.744 127.228 1.108 128.628 1.836L127.956 5L127.648 5.14C127.088 4.748 126.472 4.44 125.8 4.216C125.128 3.992 124.438 3.88 123.728 3.88C120.76 3.88 119.276 5.83067 119.276 9.732C119.276 11.8413 119.659 13.428 120.424 14.492C121.208 15.5373 122.347 16.06 123.84 16.06C124.531 16.06 125.24 15.9573 125.968 15.752C126.715 15.528 127.387 15.2293 127.984 14.856L128.32 15.052L128.012 18.272C126.594 18.9253 125.1 19.252 123.532 19.252C120.844 19.252 118.791 18.468 117.372 16.9C115.972 15.332 115.272 13.0827 115.272 10.152C115.272 7.16533 116.019 4.85067 117.512 3.208C119.024 1.56533 121.152 0.744 123.896 0.744ZM141.021 16.172L140.769 19H131.025L131.221 13.624L131.025 0.967999H134.889L134.665 13.288L134.749 15.864H140.797L141.021 16.172ZM156.864 10.124L156.836 12.504C156.855 14.6507 156.23 16.312 154.96 17.488C153.691 18.664 151.871 19.252 149.5 19.252C147.223 19.252 145.487 18.6827 144.292 17.544C143.098 16.4053 142.528 14.772 142.584 12.644L142.612 10.04L142.528 0.967999H146.336L146.14 12.14C146.122 13.5027 146.411 14.5107 147.008 15.164C147.606 15.8173 148.511 16.144 149.724 16.144C152.151 16.144 153.355 14.8747 153.336 12.336L153.14 0.967999H157.004L156.864 10.124ZM170.38 9.648C171.612 9.94667 172.517 10.4507 173.096 11.16C173.693 11.8507 173.992 12.7653 173.992 13.904C173.992 17.3947 171.257 19.14 165.788 19.14C164.182 19.14 162.54 19.0933 160.86 19L161.056 13.624L160.86 0.967999L167.272 0.939999C169.12 0.939999 170.557 1.332 171.584 2.116C172.61 2.88133 173.124 3.992 173.124 5.448C173.124 6.41867 172.881 7.268 172.396 7.996C171.929 8.724 171.257 9.27467 170.38 9.648ZM169.232 5.952C169.232 5.13067 168.989 4.552 168.504 4.216C168.018 3.86133 167.169 3.684 165.956 3.684H164.584L164.5 8.584L167.132 8.668C167.841 8.48133 168.364 8.17333 168.7 7.744C169.054 7.31467 169.232 6.71733 169.232 5.952ZM166.432 16.424C167.608 16.424 168.513 16.1907 169.148 15.724C169.801 15.2573 170.128 14.5853 170.128 13.708C170.128 12.3827 169.269 11.5613 167.552 11.244L164.444 11.3L164.416 13.288L164.5 16.312C165.153 16.3867 165.797 16.424 166.432 16.424Z" fill="white"/>
</svg>
